<svg id="Vrstva_1" data-name="Vrstva 1" xmlns="http://www.w3.org/2000/svg" viewBox="0 0 1000 1000"><defs><style>.cls-1{fill:#da281b;}.cls-2{fill:#fff;}</style></defs><g id="ĺ_ľĺ__1" data-name="ĺ›ľĺ±‚_1"><polygon class="cls-1" points="1000 1000 0 1000 0 0 1000 0 1000 1000"/><g id="_2459441750432" data-name=" 2459441750432"><path class="cls-2" d="M269.77,670.53V663.1a5.05,5.05,0,0,1,4.93-5H323v-14H274.87a5,5,0,0,1-5.1-5.13v-5.19c0-5.44,3.86-10.34,12.13-10.34h49.67v-14h-67.5c-14.31,0-31.8,8.28-31.8,28.15v28.74c0,28.52,32.09,29.6,53.15,29.6,22.39,0,41.27-1.76,51.08-4.6V677.82c-13.69,3.4-37.45,4.16-52.73,4.16C273.91,682,269.77,675.66,269.77,670.53Zm589.38-60.94h0L836.47,642a4.9,4.9,0,0,1-8.19,0l-22.65-32.45H770.2l33.93,48.64h0c1.67,2.24,4,5.1,4,8.36v20.67a7.55,7.55,0,0,0,5.33,7.14A43.41,43.41,0,0,0,825.78,696h0a43.43,43.43,0,0,0,12.36-1.59h0a7.57,7.57,0,0,0,5.33-7.14V666.59c0-3.23,2.3-6.18,4-8.42l34-48.58ZM721.27,660.92H691a2.1,2.1,0,0,1-2.1-2.69l7.62-24.32c1.22-3.91,5.25-6.1,9.24-6.1,5.25,0,9,3.21,10.1,6.61l7.42,23.81A2.09,2.09,0,0,1,721.27,660.92Zm15.59-46.23h0c-7.14-4.76-15.76-6.69-24.55-6.69s-17.4,1.93-24.54,6.69c-7.46,5-12.28,13.18-14.77,21l-18.37,58.62h23l5.58-17.86a2.14,2.14,0,0,1,2.16-1.61h41.52a2.14,2.14,0,0,1,2.1,1.44l5.67,18H770L751.6,635.72C749.11,627.87,744.32,619.65,736.86,614.69ZM611.43,662.45h0a2,2,0,0,1-1.87,1.39,1.92,1.92,0,0,1-1.82-1.36c0-.14-12.92-41-12.92-41-2.27-7.18-9.3-11.91-17.12-11.91s-15.62,4.71-17.86,11.91c0,0-12.81,40.87-12.87,41a2,2,0,0,1-1.87,1.39,2,2,0,0,1-1.84-1.36c0-.14-16.56-53-16.56-53H494.76L518.4,684.9c2.07,6.58,10.94,11.09,20.09,11.09s18.29-4.28,20.36-10.86l9.72-31a2.39,2.39,0,0,1,2.3-1.62,2.46,2.46,0,0,1,2.35,1.62l9.64,30.78C584.93,691.48,593.8,696,603,696s18.29-4.28,20.36-10.86L647,609.53H628S611.49,662.31,611.43,662.45Zm-147.8-18.31H424.46v14H435a5,5,0,0,1,5,5v9.92h0c0,4.76-4.68,8.9-18.17,8.9h-9.13c-9.86,0-14-6.29-14-11.45V633.85c0-5.44,3.86-10.34,12.13-10.34h51.39v-14H393c-14.28,0-31.77,8.25-31.77,28.12v28.74c0,28.52,32.06,29.6,53.15,29.6h2.72c35.09,0,58.42-9,58.42-22.91V655.85A11.7,11.7,0,0,0,463.63,644.14Zm-318.21-14.4h0c0-4.76,5.38-6.23,11.16-6.23H199.9v-14H148.85c-17.58,0-49.84,3.88-49.84,21.37,0,24.81,60.18,30.39,60.18,42.18,0,4.76-5.95,8.9-19.41,8.9-9.25,0-25.54-.73-40.77-4.39v13.58c10.66,2.78,25.71,4.79,46.6,4.79,35.1,0,59.22-9,59.22-22.88C204.83,648.88,145.42,642.19,145.42,629.74Z"/><path class="cls-2" d="M555.5,212a38.26,38.26,0,1,0,38.27,38.27A38.27,38.27,0,0,0,555.5,212Zm-33.73,87.85h-127a11.4,11.4,0,0,0,0,22.79H521.52c4.25,0,17,.31,22.73,8.47,6.15,8.73,3.66,20.24.54,30,0,0-35.24,112.42-37.9,121-5.7,18.37-21.86,32.29-41,24.24-15.39-6.52-15.19-23.47-8.25-37.08l36-71.17c7.2-14.23-.31-22.8-15.73-22.8H410.88a11.39,11.39,0,1,0,0,22.77h16.41c4.23,0,16.07-.54,22.48,8.56,5.67,8.61,4.51,15.67.68,28.09L436.19,480.5c-2.41,7.65-7.17,33.73,20.53,46.32A50.76,50.76,0,0,0,526.42,496c6.63-21,40.05-127.9,40.05-127.9,7-21.86,6-38.81-4-51.57C549.15,299.42,526.65,299.85,521.77,299.85ZM517.15,349h0a11.38,11.38,0,0,0-11.37-11.4h-142a11.4,11.4,0,0,0,0,22.79h142A11.37,11.37,0,0,0,517.15,349Z"/><path class="cls-2" d="M904.22,629.15a9.77,9.77,0,1,1,9.75-9.76A9.78,9.78,0,0,1,904.22,629.15Zm0-21.15h0a11.4,11.4,0,1,0,11.39,11.39A11.4,11.4,0,0,0,904.22,608Z"/><path class="cls-2" d="M904.67,618.86c1.84,0,2.84-.49,2.84-2s-1-2-2.84-2h-2.41v4Zm-4.59-6h4.68c3.12,0,4.9,1.24,4.9,3.91a3.49,3.49,0,0,1-2.89,3.71l3.06,5.41h-2.35l-2.92-5.15h-2.3v5.15h-2.18Z"/></g></g></svg>